<?xml version="1.0" standalone="no"?>
<!DOCTYPE svg PUBLIC "-//W3C//DTD SVG 20010904//EN"
 "http://www.w3.org/TR/2001/REC-SVG-20010904/DTD/svg10.dtd">
<svg version="1.0" xmlns="http://www.w3.org/2000/svg"
 width="512.000000pt" height="512.000000pt" viewBox="0 0 512.000000 512.000000"
 preserveAspectRatio="xMidYMid meet">
<metadata>
Created by potrace 1.14, written by Peter Selinger 2001-2017
</metadata>
<g transform="translate(0.000000,512.000000) scale(0.100000,-0.100000)"
fill="#000000" stroke="none">
<path d="M2555 4490 c-11 -4 -67 -23 -125 -40 -115 -35 -215 -74 -361 -143
-53 -24 -107 -48 -120 -52 -50 -16 -136 -59 -202 -101 -100 -65 -215 -120
-288 -139 -35 -9 -66 -20 -69 -24 -16 -22 -274 -131 -309 -131 -21 0 -21 -4
-21 -247 0 -346 18 -823 37 -978 33 -270 40 -310 73 -401 12 -33 35 -104 52
-159 16 -55 38 -121 49 -147 10 -26 19 -53 19 -60 0 -7 13 -38 29 -68 16 -30
32 -66 36 -80 4 -14 17 -38 30 -55 32 -44 125 -195 125 -205 0 -4 7 -14 16
-21 9 -8 40 -45 69 -84 99 -133 285 -323 413 -423 41 -31 92 -72 115 -89 57
-45 110 -80 157 -104 21 -11 44 -27 51 -35 7 -8 42 -31 78 -51 36 -20 78 -45
93 -55 14 -10 32 -18 40 -18 14 0 193 89 237 118 27 17 31 20 116 72 28 16 84
58 126 93 43 34 120 97 172 139 52 43 124 110 159 149 34 40 104 117 154 173
50 56 97 112 104 126 7 14 36 57 65 95 59 82 116 183 135 240 7 22 18 49 25
60 31 50 105 245 105 278 0 10 6 33 14 50 20 46 46 136 46 158 0 11 8 36 17
57 24 55 49 281 56 527 3 88 10 250 16 360 6 110 11 289 11 398 l0 197 -29 0
c-24 0 -189 62 -306 114 -210 95 -293 136 -365 179 -80 49 -154 83 -390 184
-234 100 -266 113 -286 113 -11 0 -47 9 -79 20 -65 22 -62 22 -90 10z"/>
</g>
</svg>
